<svg width="30" height="30" viewBox="0 0 30 30" fill="none" xmlns="http://www.w3.org/2000/svg">
<g id="Email Icon">
<g id="Group 238">
<path id="Rectangle 337" d="M29.8315 9.82825C29.8315 4.90946 25.8441 0.921997 20.9253 0.921997H9.1721C4.25331 0.921997 0.265844 4.90946 0.265844 9.82825V20.5157C0.265844 25.4345 4.25331 29.422 9.17209 29.422H20.9253C25.8441 29.422 29.8315 25.4345 29.8315 20.5157V9.82825Z" fill="#FF7517"/>
</g>
<path id="Subtract" fill-rule="evenodd" clip-rule="evenodd" d="M22.9772 8.70422C23.5578 8.70422 24.0734 8.96533 24.3978 9.36919L14.9758 16.7823L5.63768 9.50381C5.9499 9.02429 6.51303 8.70422 7.15585 8.70422H22.9772ZM5.37817 21.0445V10.8192L12.0785 16.0417L5.39199 21.2534C5.38287 21.185 5.37817 21.1153 5.37817 21.0445ZM5.99096 22.3042C6.30294 22.5583 6.71025 22.7121 7.15585 22.7121H22.9772C23.3602 22.7121 23.7149 22.5985 24.0051 22.4053L16.8852 16.8035L15.6049 17.8108C15.2427 18.0957 14.7152 18.0969 14.3517 17.8135L13.0521 16.8005L5.99096 22.3042ZM17.8534 16.0417L24.7063 21.4334C24.738 21.3086 24.7548 21.1784 24.7548 21.0445V10.6118L17.8534 16.0417Z" fill="#2C2727"/>
</g>
</svg>
