<svg width="29" height="30" viewBox="0 0 29 30" fill="none" xmlns="http://www.w3.org/2000/svg">
<g id="FB Icon" clip-path="url(#clip0_25_189)">
<path id="Vector" d="M14.3757 0.921997C6.83324 0.921997 0.71875 7.30395 0.71875 15.1763C0.71875 21.8611 5.12831 27.4704 11.0767 29.011V19.5325H8.26067V15.1763H11.0767V13.2993C11.0767 8.44772 13.1805 6.19896 17.7441 6.19896C18.6094 6.19896 20.1023 6.37628 20.7131 6.55303V10.5015C20.3908 10.4661 19.8308 10.4485 19.1354 10.4485C16.8962 10.4485 16.0309 11.3339 16.0309 13.6357V15.1763H20.4918L19.7254 19.5325H16.0309V29.3264C22.7933 28.4739 28.0332 22.4643 28.0332 15.1763C28.0327 7.30395 21.9182 0.921997 14.3757 0.921997Z" fill="#FF7517"/>
</g>
<defs>
<clipPath id="clip0_25_189">
<rect width="27.3139" height="28.5087" fill="white" transform="translate(0.71875 0.921997)"/>
</clipPath>
</defs>
</svg>
