<svg width="29" height="30" viewBox="0 0 29 30" fill="none" xmlns="http://www.w3.org/2000/svg">
<g id="Github Icon">
<path id="Vector" fill-rule="evenodd" clip-rule="evenodd" d="M14.4068 0.921997C6.51796 0.921997 0.140625 7.34635 0.140625 15.2941C0.140625 21.6472 4.2268 27.025 9.89541 28.9284C10.6041 29.0714 10.8637 28.6191 10.8637 28.2386C10.8637 27.9054 10.8404 26.7634 10.8404 25.5734C6.87188 26.4302 6.04548 23.8601 6.04548 23.8601C5.40772 22.1945 4.46275 21.7664 4.46275 21.7664C3.16387 20.886 4.55736 20.886 4.55736 20.886C5.99817 20.9811 6.7542 22.3612 6.7542 22.3612C8.02943 24.5502 10.0843 23.9317 10.911 23.5509C11.029 22.6229 11.4072 21.9804 11.8087 21.6236C8.64354 21.2904 5.31339 20.0531 5.31339 14.5326C5.31339 12.9621 5.8799 11.6772 6.77756 10.678C6.63593 10.3211 6.1398 8.84556 6.91948 6.87065C6.91948 6.87065 8.12405 6.48986 10.8401 8.34592C12.0029 8.03132 13.2021 7.87128 14.4068 7.86993C15.6113 7.86993 16.8393 8.03667 17.9732 8.34592C20.6895 6.48986 21.8941 6.87065 21.8941 6.87065C22.6737 8.84556 22.1773 10.3211 22.0357 10.678C22.957 11.6772 23.5001 12.9621 23.5001 14.5326C23.5001 20.0531 20.17 21.2664 16.9812 21.6236C17.501 22.0756 17.9495 22.9321 17.9495 24.2885C17.9495 26.2158 17.9261 27.7626 17.9261 28.2383C17.9261 28.6191 18.186 29.0714 18.8945 28.9287C24.5631 27.0247 28.6493 21.6472 28.6493 15.2941C28.6726 7.34635 22.2719 0.921997 14.4068 0.921997Z" fill="#FF7517"/>
</g>
</svg>
