<svg width="29" height="30" viewBox="0 0 29 30" fill="none" xmlns="http://www.w3.org/2000/svg">
<g id="IG Icon" clip-path="url(#clip0_24_171)">
<path id="Vector" d="M14.7387 3.48889C18.5473 3.48889 18.9983 3.5056 20.4961 3.57241C21.8882 3.63366 22.6399 3.86752 23.141 4.06241C23.8036 4.31854 24.2825 4.63035 24.778 5.12592C25.2791 5.62705 25.5854 6.10033 25.8415 6.76294C26.0364 7.26407 26.2703 8.02133 26.3315 9.40779C26.3983 10.9112 26.415 11.3622 26.415 15.1652C26.415 18.9738 26.3983 19.4248 26.3315 20.9226C26.2703 22.3147 26.0364 23.0664 25.8415 23.5675C25.5854 24.2301 25.2736 24.7089 24.778 25.2045C24.2769 25.7056 23.8036 26.0119 23.141 26.268C22.6399 26.4629 21.8826 26.6968 20.4961 26.758C18.9928 26.8248 18.5417 26.8415 14.7387 26.8415C10.9301 26.8415 10.4791 26.8248 8.9813 26.758C7.58928 26.6968 6.83758 26.4629 6.33645 26.268C5.67385 26.0119 5.19499 25.7001 4.69943 25.2045C4.1983 24.7034 3.89206 24.2301 3.63592 23.5675C3.44104 23.0664 3.20718 22.3091 3.14593 20.9226C3.07911 19.4192 3.06241 18.9682 3.06241 15.1652C3.06241 11.3566 3.07911 10.9056 3.14593 9.40779C3.20718 8.01576 3.44104 7.26407 3.63592 6.76294C3.89206 6.10033 4.20387 5.62148 4.69943 5.12592C5.20056 4.62479 5.67385 4.31854 6.33645 4.06241C6.83758 3.86752 7.59485 3.63366 8.9813 3.57241C10.4791 3.5056 10.9301 3.48889 14.7387 3.48889ZM14.7387 0.921997C10.8689 0.921997 10.3845 0.938701 8.86437 1.00552C7.34985 1.07234 6.30861 1.31733 5.40658 1.66812C4.46557 2.03562 3.66933 2.52004 2.87866 3.31628C2.08242 4.10695 1.598 4.90319 1.2305 5.83863C0.87971 6.74623 0.634714 7.7819 0.567897 9.29643C0.501079 10.8221 0.484375 11.3065 0.484375 15.1763C0.484375 19.0462 0.501079 19.5306 0.567897 21.0507C0.634714 22.5652 0.87971 23.6065 1.2305 24.5085C1.598 25.4495 2.08242 26.2457 2.87866 27.0364C3.66933 27.8271 4.46557 28.3171 5.40101 28.679C6.30861 29.0298 7.34428 29.2748 8.8588 29.3416C10.3789 29.4084 10.8633 29.4251 14.7332 29.4251C18.603 29.4251 19.0874 29.4084 20.6075 29.3416C22.122 29.2748 23.1633 29.0298 24.0653 28.679C25.0007 28.3171 25.797 27.8271 26.5877 27.0364C27.3783 26.2457 27.8683 25.4495 28.2302 24.5141C28.581 23.6065 28.826 22.5708 28.8928 21.0563C28.9597 19.5362 28.9764 19.0517 28.9764 15.1819C28.9764 11.3121 28.9597 10.8277 28.8928 9.30756C28.826 7.79304 28.581 6.7518 28.2302 5.84977C27.8795 4.90319 27.395 4.10695 26.5988 3.31628C25.8081 2.52561 25.0119 2.03562 24.0764 1.67369C23.1688 1.3229 22.1332 1.0779 20.6186 1.01109C19.093 0.938701 18.6086 0.921997 14.7387 0.921997Z" fill="#FF7517"/>
<path id="Vector_2" d="M14.7388 7.85425C10.6964 7.85425 7.41675 11.1339 7.41675 15.1763C7.41675 19.2188 10.6964 22.4984 14.7388 22.4984C18.7812 22.4984 22.0609 19.2188 22.0609 15.1763C22.0609 11.1339 18.7812 7.85425 14.7388 7.85425ZM14.7388 19.9259C12.1162 19.9259 9.98921 17.7989 9.98921 15.1763C9.98921 12.5537 12.1162 10.4267 14.7388 10.4267C17.3614 10.4267 19.4884 12.5537 19.4884 15.1763C19.4884 17.7989 17.3614 19.9259 14.7388 19.9259Z" fill="#FF7517"/>
<path id="Vector_3" d="M24.0597 7.56464C24.0597 8.51121 23.2913 9.27405 22.3503 9.27405C21.4037 9.27405 20.6409 8.50565 20.6409 7.56464C20.6409 6.61806 21.4093 5.85522 22.3503 5.85522C23.2913 5.85522 24.0597 6.62362 24.0597 7.56464Z" fill="#FF7517"/>
</g>
<defs>
<clipPath id="clip0_24_171">
<rect width="28.5087" height="28.5087" fill="white" transform="translate(0.484375 0.921997)"/>
</clipPath>
</defs>
</svg>
