<svg width="30" height="30" viewBox="0 0 30 30" fill="none" xmlns="http://www.w3.org/2000/svg">
<g id="Linkedin Icon" clip-path="url(#clip0_24_176)">
<path id="Vector" d="M27.2111 0.921997H2.91749C1.75375 0.921997 0.812744 1.84073 0.812744 2.97663V27.3705C0.812744 28.5064 1.75375 29.4307 2.91749 29.4307H27.2111C28.3749 29.4307 29.3214 28.5064 29.3214 27.3761V2.97663C29.3214 1.84073 28.3749 0.921997 27.2111 0.921997ZM9.27069 25.2156H5.03894V11.6072H9.27069V25.2156ZM7.15482 9.75301C5.7962 9.75301 4.69928 8.65609 4.69928 7.30304C4.69928 5.95 5.7962 4.85308 7.15482 4.85308C8.50786 4.85308 9.60478 5.95 9.60478 7.30304C9.60478 8.65053 8.50786 9.75301 7.15482 9.75301ZM25.1064 25.2156H20.8802V18.6007C20.8802 17.025 20.8524 14.9926 18.6808 14.9926C16.4814 14.9926 16.1473 16.7131 16.1473 18.4894V25.2156H11.9267V11.6072H15.9803V13.4669H16.0359C16.5983 12.3979 17.9792 11.2675 20.0338 11.2675C24.3157 11.2675 25.1064 14.085 25.1064 17.7488V25.2156Z" fill="#FF7517"/>
</g>
<defs>
<clipPath id="clip0_24_176">
<rect width="28.5087" height="28.5087" fill="white" transform="translate(0.812744 0.921997)"/>
</clipPath>
</defs>
</svg>
